<svg xmlns="http://www.w3.org/2000/svg" xmlns:xlink="http://www.w3.org/1999/xlink" version="1.1" width="256" height="256" viewBox="0 0 256 256" xml:space="preserve">
<g style="stroke: none; stroke-width: 0; stroke-dasharray: none; stroke-linecap: butt; stroke-linejoin: miter; stroke-miterlimit: 10; fill: none; fill-rule: nonzero; opacity: 1;" transform="translate(1.4065934065934016 1.4065934065934016) scale(2.81 2.81)">
	<circle cx="45" cy="45" r="45" style="stroke: none; stroke-width: 1; stroke-dasharray: none; stroke-linecap: butt; stroke-linejoin: miter; stroke-miterlimit: 10; fill: rgb(32,196,203); fill-rule: nonzero; opacity: 1;" transform="  matrix(1 0 0 1 0 0) "/>
	<circle cx="26.666999999999998" cy="60.967000000000006" r="3.377" style="stroke: none; stroke-width: 1; stroke-dasharray: none; stroke-linecap: butt; stroke-linejoin: miter; stroke-miterlimit: 10; fill: rgb(27,167,173); fill-rule: nonzero; opacity: 1;" transform="  matrix(1 0 0 1 0 0) "/>
	<path d="M 26.667 65.342 c -2.413 0 -4.376 -1.964 -4.376 -4.377 s 1.963 -4.376 4.376 -4.376 c 2.414 0 4.377 1.963 4.377 4.376 S 29.081 65.342 26.667 65.342 z M 26.667 58.589 c -1.311 0 -2.376 1.065 -2.376 2.376 s 1.066 2.377 2.376 2.377 s 2.377 -1.066 2.377 -2.377 S 27.978 58.589 26.667 58.589 z" style="stroke: none; stroke-width: 1; stroke-dasharray: none; stroke-linecap: butt; stroke-linejoin: miter; stroke-miterlimit: 10; fill: rgb(27,167,173); fill-rule: nonzero; opacity: 1;" transform=" matrix(1 0 0 1 0 0) " stroke-linecap="round"/>
	<circle cx="60.437000000000005" cy="60.967000000000006" r="3.377" style="stroke: none; stroke-width: 1; stroke-dasharray: none; stroke-linecap: butt; stroke-linejoin: miter; stroke-miterlimit: 10; fill: rgb(27,167,173); fill-rule: nonzero; opacity: 1;" transform="  matrix(1 0 0 1 0 0) "/>
	<path d="M 60.434 65.342 c -2.413 0 -4.377 -1.964 -4.377 -4.377 s 1.964 -4.376 4.377 -4.376 s 4.376 1.963 4.376 4.376 S 62.847 65.342 60.434 65.342 z M 60.434 58.589 c -1.311 0 -2.377 1.065 -2.377 2.376 s 1.066 2.377 2.377 2.377 s 2.376 -1.066 2.376 -2.377 S 61.744 58.589 60.434 58.589 z" style="stroke: none; stroke-width: 1; stroke-dasharray: none; stroke-linecap: butt; stroke-linejoin: miter; stroke-miterlimit: 10; fill: rgb(27,167,173); fill-rule: nonzero; opacity: 1;" transform=" matrix(1 0 0 1 0 0) " stroke-linecap="round"/>
	<path d="M 67.76 43.143 H 17.907 c -1.874 0 -3.407 1.533 -3.407 3.407 v 3.718 v 2.388 v 4.495 c 0 1.105 0.904 2.01 2.01 2.01 h 3.152 c 0.47 -3.507 3.467 -6.215 7.104 -6.215 c 3.636 0 6.633 2.707 7.104 6.215 h 16.764 h 2.794 c 0.47 -3.507 3.467 -6.215 7.104 -6.215 s 6.633 2.707 7.104 6.215 h 1.522 c 1.105 0 2.01 -0.904 2.01 -2.01 v -4.495 v -2.388 V 50.15 v -3.6 C 71.167 44.676 69.633 43.143 67.76 43.143 z" style="stroke: none; stroke-width: 1; stroke-dasharray: none; stroke-linecap: butt; stroke-linejoin: miter; stroke-miterlimit: 10; fill: rgb(27,167,173); fill-rule: nonzero; opacity: 1;" transform=" matrix(1 0 0 1 0 0) " stroke-linecap="round"/>
	<path d="M 51.873 54.856 H 35.455 c -5.601 0 -10.184 -4.583 -10.184 -10.184 v -7.219 c 0 -3.017 2.468 -5.485 5.485 -5.485 h 19.228 c 5.726 0 10.412 4.685 10.412 10.412 v 3.953 C 60.396 51.021 56.56 54.856 51.873 54.856 z" style="stroke: none; stroke-width: 1; stroke-dasharray: none; stroke-linecap: butt; stroke-linejoin: miter; stroke-miterlimit: 10; fill: rgb(27,167,173); fill-rule: nonzero; opacity: 1;" transform=" matrix(1 0 0 1 0 0) " stroke-linecap="round"/>
	<circle cx="29.997" cy="57.627" r="3.377" style="stroke: none; stroke-width: 1; stroke-dasharray: none; stroke-linecap: butt; stroke-linejoin: miter; stroke-miterlimit: 10; fill: rgb(255,255,255); fill-rule: nonzero; opacity: 1;" transform="  matrix(1 0 0 1 0 0) "/>
	<path d="M 30.001 62.009 c -2.413 0 -4.376 -1.964 -4.376 -4.377 s 1.963 -4.377 4.376 -4.377 s 4.376 1.964 4.376 4.377 S 32.414 62.009 30.001 62.009 z M 30.001 55.255 c -1.311 0 -2.376 1.066 -2.376 2.377 s 1.066 2.377 2.376 2.377 s 2.376 -1.066 2.376 -2.377 S 31.312 55.255 30.001 55.255 z" style="stroke: none; stroke-width: 1; stroke-dasharray: none; stroke-linecap: butt; stroke-linejoin: miter; stroke-miterlimit: 10; fill: rgb(255,255,255); fill-rule: nonzero; opacity: 1;" transform=" matrix(1 0 0 1 0 0) " stroke-linecap="round"/>
	<circle cx="63.767" cy="57.627" r="3.377" style="stroke: none; stroke-width: 1; stroke-dasharray: none; stroke-linecap: butt; stroke-linejoin: miter; stroke-miterlimit: 10; fill: rgb(255,255,255); fill-rule: nonzero; opacity: 1;" transform="  matrix(1 0 0 1 0 0) "/>
	<path d="M 63.767 62.009 c -2.413 0 -4.376 -1.964 -4.376 -4.377 s 1.963 -4.377 4.376 -4.377 s 4.377 1.964 4.377 4.377 S 66.18 62.009 63.767 62.009 z M 63.767 55.255 c -1.311 0 -2.376 1.066 -2.376 2.377 s 1.065 2.377 2.376 2.377 s 2.377 -1.066 2.377 -2.377 S 65.077 55.255 63.767 55.255 z" style="stroke: none; stroke-width: 1; stroke-dasharray: none; stroke-linecap: butt; stroke-linejoin: miter; stroke-miterlimit: 10; fill: rgb(255,255,255); fill-rule: nonzero; opacity: 1;" transform=" matrix(1 0 0 1 0 0) " stroke-linecap="round"/>
	<path d="M 71.093 39.809 H 21.24 c -1.874 0 -3.407 1.533 -3.407 3.407 v 3.718 v 2.388 v 4.495 c 0 1.105 0.904 2.01 2.01 2.01 h 3.152 c 0.47 -3.507 3.467 -6.215 7.104 -6.215 c 3.636 0 6.633 2.707 7.104 6.215 h 16.764 h 2.794 c 0.47 -3.507 3.467 -6.215 7.104 -6.215 c 3.636 0 6.633 2.707 7.104 6.215 h 1.522 c 1.105 0 2.01 -0.904 2.01 -2.01 v -4.495 v -2.388 v -0.118 v -3.6 C 74.5 41.342 72.967 39.809 71.093 39.809 z" style="stroke: none; stroke-width: 1; stroke-dasharray: none; stroke-linecap: butt; stroke-linejoin: miter; stroke-miterlimit: 10; fill: rgb(255,255,255); fill-rule: nonzero; opacity: 1;" transform=" matrix(1 0 0 1 0 0) " stroke-linecap="round"/>
	<path d="M 55.206 51.522 H 38.788 c -5.601 0 -10.184 -4.583 -10.184 -10.184 V 34.12 c 0 -3.017 2.468 -5.485 5.485 -5.485 h 19.228 c 5.726 0 10.412 4.685 10.412 10.412 V 43 C 63.729 47.687 59.894 51.522 55.206 51.522 z" style="stroke: none; stroke-width: 1; stroke-dasharray: none; stroke-linecap: butt; stroke-linejoin: miter; stroke-miterlimit: 10; fill: rgb(255,255,255); fill-rule: nonzero; opacity: 1;" transform=" matrix(1 0 0 1 0 0) " stroke-linecap="round"/>
</g>
</svg>